<svg xmlns="http://www.w3.org/2000/svg" viewBox="0 0 297 321.031" height="1213.345" width="1122.519"><path style="isolation:auto;mix-blend-mode:normal;solid-color:#000;solid-opacity:1" fill="#f4f5f6" color="#000" overflow="visible" d="M0 0h297v321.031H0z"/><g aria-label="Palet Warna Gimpscape ID x CCID" style="line-height:125%;-inkscape-font-specification:'Open Sans, Normal';font-variant-ligatures:normal;font-variant-caps:normal;font-variant-numeric:normal;font-feature-settings:normal;text-align:center" font-weight="400" font-size="10.583" font-family="Open Sans" letter-spacing="0" word-spacing="0" text-anchor="middle" stroke-width=".265"><path d="M118.73 42.575h.526q.74 0 1.106-.29.367-.294.367-.852 0-.563-.31-.832-.305-.269-.961-.269h-.729zm3.617-1.199q0 1.22-.765 1.866-.76.646-2.166.646h-.687v2.687h-1.602V39.02h2.414q1.374 0 2.087.594.719.59.719 1.762zM127.318 46.575l-.305-.786h-.041q-.398.502-.822.698-.419.191-1.096.191-.832 0-1.312-.475-.476-.476-.476-1.354 0-.92.641-1.354.646-.44 1.943-.486l1.003-.03v-.254q0-.879-.9-.879-.692 0-1.627.42l-.522-1.065q.997-.522 2.212-.522 1.162 0 1.782.506.62.506.62 1.54v3.85zm-.465-2.677l-.61.02q-.687.021-1.023.249-.336.227-.336.692 0 .667.765.667.547 0 .873-.315.33-.316.33-.838zM131.617 46.575h-1.576v-8.041h1.576zM135.664 41.81q-.502 0-.786.32-.284.316-.325.9h2.211q-.01-.584-.305-.9-.294-.32-.795-.32zm.222 4.868q-1.396 0-2.181-.77-.785-.77-.785-2.18 0-1.453.723-2.243.729-.796 2.01-.796 1.225 0 1.907.698.682.697.682 1.927v.765h-3.726q.026.672.398 1.049.372.377 1.044.377.522 0 .987-.108.465-.109.972-.347v1.22q-.414.207-.884.305-.47.103-1.147.103zM141.958 45.422q.413 0 .992-.18v1.173q-.59.263-1.447.263-.946 0-1.38-.475-.429-.48-.429-1.437v-2.785h-.754v-.667l.868-.527.455-1.22h1.007v1.23h1.618v1.184h-1.618v2.785q0 .336.186.496.192.16.502.16zM154.35 46.575h-1.824l-1.024-3.969q-.056-.212-.196-.873-.134-.667-.155-.894-.031.279-.155.899-.124.615-.191.878l-1.018 3.959h-1.82l-1.927-7.555h1.576l.967 4.124q.253 1.142.367 1.979.03-.295.14-.91.113-.62.211-.96l1.1-4.233h1.515l1.1 4.232q.073.284.181.868.109.584.166 1.003.051-.403.165-1.003.114-.604.207-.976l.961-4.124h1.576zM160.768 46.575l-.305-.786h-.041q-.398.502-.822.698-.418.191-1.095.191-.832 0-1.313-.475-.475-.476-.475-1.354 0-.92.64-1.354.646-.44 1.943-.486l1.003-.03v-.254q0-.879-.9-.879-.692 0-1.627.42l-.522-1.065q.997-.522 2.212-.522 1.162 0 1.783.506.62.506.62 1.54v3.85zm-.465-2.677l-.61.02q-.687.021-1.023.249-.336.227-.336.692 0 .667.765.667.548 0 .873-.315.33-.316.33-.838zM166.716 40.689q.32 0 .532.046l-.119 1.478q-.19-.051-.465-.051-.754 0-1.178.387-.419.388-.419 1.085v2.94h-1.576v-5.777h1.194l.233.972h.077q.269-.486.724-.78.46-.3.997-.3zM173.63 46.575h-1.576V43.2q0-.625-.222-.935-.222-.315-.708-.315-.662 0-.956.444-.295.44-.295 1.463v2.718h-1.576v-5.778h1.204l.212.74h.088q.264-.42.724-.631.465-.217 1.054-.217 1.007 0 1.53.548.521.542.521 1.57zM178.922 46.575l-.305-.786h-.041q-.398.502-.822.698-.419.191-1.095.191-.832 0-1.313-.475-.475-.476-.475-1.354 0-.92.64-1.354.646-.44 1.943-.486l1.003-.03v-.254q0-.879-.9-.879-.692 0-1.627.42l-.522-1.065q.997-.522 2.212-.522 1.162 0 1.783.506.62.506.62 1.54v3.85zm-.465-2.677l-.61.02q-.687.021-1.023.249-.336.227-.336.692 0 .667.765.667.548 0 .873-.315.33-.316.33-.838z" font-weight="700"/><path d="M101.066 55.846h2.569v3.674q-.6.191-1.22.29-.62.097-1.437.097-1.715 0-2.671-1.018-.956-1.023-.956-2.863 0-1.178.47-2.061.475-.89 1.364-1.354.889-.47 2.083-.47 1.209 0 2.253.444l-.341.775q-1.023-.434-1.97-.434-1.379 0-2.154.822-.775.821-.775 2.278 0 1.53.744 2.32.75.791 2.196.791.786 0 1.535-.18V56.63h-1.69zM106.177 59.804h-.858V54.14h.858zm-.93-7.198q0-.295.145-.43.144-.139.361-.139.207 0 .357.14t.15.429q0 .289-.15.434-.15.14-.357.14-.217 0-.361-.14-.145-.145-.145-.434zM115.215 59.804V56.12q0-.677-.29-1.013-.289-.341-.898-.341-.801 0-1.184.46-.382.46-.382 1.415v3.163h-.858v-3.685q0-.676-.29-1.012-.289-.341-.904-.341-.806 0-1.183.485-.372.48-.372 1.582v2.971h-.858V54.14h.698l.14.775h.04q.243-.413.683-.646.444-.232.992-.232 1.328 0 1.736.961h.041q.254-.444.734-.703.48-.258 1.096-.258.96 0 1.436.496.48.491.48 1.576v3.695zM120.476 59.907q-.553 0-1.013-.201-.455-.207-.765-.63h-.062q.062.495.062.94v2.33h-.858V54.14h.698l.119.775h.041q.33-.465.77-.671.44-.207 1.008-.207 1.126 0 1.736.77.615.77.615 2.16 0 1.395-.625 2.17-.62.77-1.726.77zm-.124-5.141q-.868 0-1.256.48-.387.48-.398 1.53v.191q0 1.194.398 1.71.398.512 1.277.512.733 0 1.147-.594.418-.594.418-1.638 0-1.06-.418-1.623-.414-.568-1.168-.568zM127.98 58.259q0 .79-.59 1.22-.589.428-1.653.428-1.127 0-1.757-.356v-.796q.408.207.873.326.47.118.904.118.672 0 1.034-.211.361-.217.361-.657 0-.33-.289-.563-.284-.238-1.116-.558-.79-.295-1.127-.512-.33-.222-.496-.501-.16-.279-.16-.667 0-.692.563-1.09.564-.403 1.545-.403.915 0 1.788.372l-.304.698q-.853-.352-1.546-.352-.61 0-.92.191-.31.192-.31.528 0 .227.114.387.119.16.377.305.259.145.993.419 1.007.366 1.359.739.356.372.356.935zM131.638 59.907q-1.23 0-1.907-.754-.672-.76-.672-2.145 0-1.42.682-2.196.688-.775 1.954-.775.408 0 .816.088.409.088.641.207l-.263.728q-.285-.114-.62-.186-.336-.077-.595-.077-1.726 0-1.726 2.201 0 1.044.419 1.602.423.558 1.25.558.708 0 1.452-.305v.76q-.568.294-1.431.294zM137.896 59.804l-.17-.806h-.042q-.424.532-.847.723-.419.186-1.05.186-.842 0-1.322-.434-.476-.434-.476-1.235 0-1.715 2.744-1.798l.961-.031v-.352q0-.666-.289-.981-.284-.32-.915-.32-.708 0-1.602.433l-.263-.656q.418-.227.915-.357.5-.129 1.002-.129 1.013 0 1.499.45.49.45.49 1.442v3.865zm-1.938-.605q.801 0 1.256-.439.46-.44.46-1.23v-.511l-.858.036q-1.023.036-1.478.32-.45.28-.45.874 0 .465.28.708.284.242.79.242zM142.934 59.907q-.553 0-1.012-.201-.455-.207-.765-.63h-.062q.062.495.062.94v2.33h-.858V54.14h.698l.118.775h.042q.33-.465.77-.671.439-.207 1.007-.207 1.127 0 1.737.77.615.77.615 2.16 0 1.395-.626 2.17-.62.77-1.726.77zm-.124-5.141q-.868 0-1.255.48-.388.48-.398 1.53v.191q0 1.194.398 1.71.398.512 1.276.512.734 0 1.147-.594.419-.594.419-1.638 0-1.06-.419-1.623-.413-.568-1.168-.568zM149.177 59.907q-1.256 0-1.984-.764-.724-.765-.724-2.124 0-1.37.672-2.176.677-.806 1.814-.806 1.064 0 1.684.703.62.697.62 1.845v.542h-3.901q.026.998.501 1.514.48.517 1.349.517.915 0 1.809-.382v.764q-.455.197-.863.28-.403.087-.977.087zm-.233-5.152q-.682 0-1.09.445-.403.444-.475 1.23h2.96q0-.812-.361-1.24-.362-.435-1.034-.435zM155.6 59.804v-7.555h.879v7.555zM164.582 55.954q0 1.87-1.018 2.863-1.013.987-2.92.987h-2.093v-7.555h2.315q1.762 0 2.739.977.977.976.977 2.728zm-.93.031q0-1.478-.745-2.227-.739-.75-2.201-.75h-1.276v6.036h1.07q1.57 0 2.36-.77.792-.775.792-2.289zM170.25 56.905l-1.968-2.765h.976l1.494 2.17 1.488-2.17h.966l-1.968 2.765 2.072 2.899h-.972l-1.586-2.294-1.602 2.294h-.972zM180.545 52.926q-1.246 0-1.97.832-.718.827-.718 2.268 0 1.484.693 2.295.697.806 1.984.806.79 0 1.804-.284v.77q-.786.294-1.938.294-1.67 0-2.579-1.012-.904-1.013-.904-2.879 0-1.168.434-2.046.44-.879 1.26-1.354.828-.476 1.944-.476 1.188 0 2.077.434l-.372.755q-.858-.403-1.715-.403zM187.221 52.926q-1.245 0-1.969.832-.718.827-.718 2.268 0 1.484.692 2.295.698.806 1.985.806.79 0 1.803-.284v.77q-.785.294-1.938.294-1.669 0-2.578-1.012-.905-1.013-.905-2.879 0-1.168.435-2.046.439-.879 1.26-1.354.827-.476 1.943-.476 1.189 0 2.078.434l-.372.755q-.858-.403-1.716-.403zM190.663 59.804v-7.555h.878v7.555zM199.644 55.954q0 1.87-1.018 2.863-1.013.987-2.92.987h-2.092v-7.555h2.315q1.762 0 2.738.977.977.976.977 2.728zm-.93.031q0-1.478-.744-2.227-.74-.75-2.202-.75h-1.276v6.036h1.07q1.57 0 2.361-.77.791-.775.791-2.289z"/></g><path style="isolation:auto;mix-blend-mode:normal;solid-color:#000;solid-opacity:1" fill="#ce4e4d" color="#000" overflow="visible" d="M23.632 82.978h40.666v40.666H23.632z"/><path style="isolation:auto;mix-blend-mode:normal;solid-color:#000;solid-opacity:1" fill="#ff872a" color="#000" overflow="visible" d="M75.9 82.978h40.666v40.666H75.9z"/><path style="isolation:auto;mix-blend-mode:normal;solid-color:#000;solid-opacity:1" fill="#38ad55" color="#000" overflow="visible" d="M128.167 82.978h40.666v40.666h-40.666z"/><path style="isolation:auto;mix-blend-mode:normal;solid-color:#000;solid-opacity:1" fill="#195fbe" color="#000" overflow="visible" d="M180.434 82.978H221.1v40.666h-40.666z"/><path style="isolation:auto;mix-blend-mode:normal;solid-color:#000;solid-opacity:1" fill="#4527a0" color="#000" overflow="visible" d="M232.701 82.978h40.666v40.666h-40.666z"/><path d="M15.43 157.184h62.913v20.333H15.43v-20.333" style="isolation:auto;mix-blend-mode:normal;solid-color:#000;solid-opacity:1" fill="#ce4e4d" color="#000" overflow="visible"/><text style="line-height:125%;-inkscape-font-specification:'Open Sans, Normal';font-variant-ligatures:normal;font-variant-caps:normal;font-variant-numeric:normal;font-feature-settings:normal;text-align:center" x="51.824" y="248.745" font-weight="400" font-size="6.654" font-family="Open Sans" letter-spacing="0" word-spacing="0" text-anchor="middle" fill="#fff" stroke-width=".265" transform="translate(-5.162 -78.88)"><tspan x="51.824" y="248.745">#ce4e4dff</tspan></text><path d="M15.43 177.517h62.913v20.333H15.43v-20.333" style="isolation:auto;mix-blend-mode:normal;solid-color:#000;solid-opacity:1" fill="#ff872a" color="#000" overflow="visible"/><text y="269.078" x="51.824" style="line-height:125%;-inkscape-font-specification:'Open Sans, Normal';font-variant-ligatures:normal;font-variant-caps:normal;font-variant-numeric:normal;font-feature-settings:normal;text-align:center" font-weight="400" font-size="6.654" font-family="Open Sans" letter-spacing="0" word-spacing="0" text-anchor="middle" fill="#fff" stroke-width=".265" transform="translate(-5.162 -78.88)"><tspan y="269.078" x="51.824">#ff872aff</tspan></text><path d="M15.43 197.85h62.913v20.333H15.43V197.85" style="isolation:auto;mix-blend-mode:normal;solid-color:#000;solid-opacity:1" fill="#38ad55" color="#000" overflow="visible"/><text style="line-height:125%;-inkscape-font-specification:'Open Sans, Normal';font-variant-ligatures:normal;font-variant-caps:normal;font-variant-numeric:normal;font-feature-settings:normal;text-align:center" x="51.824" y="289.411" font-weight="400" font-size="6.654" font-family="Open Sans" letter-spacing="0" word-spacing="0" text-anchor="middle" fill="#fff" stroke-width=".265" transform="translate(-5.162 -78.88)"><tspan x="51.824" y="289.411">#38ad55ff</tspan></text><path d="M15.43 218.183h62.913v20.333H15.43v-20.333" style="isolation:auto;mix-blend-mode:normal;solid-color:#000;solid-opacity:1" fill="#195fbe" color="#000" overflow="visible"/><text y="309.744" x="51.824" style="line-height:125%;-inkscape-font-specification:'Open Sans, Normal';font-variant-ligatures:normal;font-variant-caps:normal;font-variant-numeric:normal;font-feature-settings:normal;text-align:center" font-weight="400" font-size="6.654" font-family="Open Sans" letter-spacing="0" word-spacing="0" text-anchor="middle" fill="#fff" stroke-width=".265" transform="translate(-5.162 -78.88)"><tspan y="309.744" x="51.824">#195fbeff</tspan></text><path d="M15.43 238.516h62.913v20.333H15.43v-20.333" style="isolation:auto;mix-blend-mode:normal;solid-color:#000;solid-opacity:1" fill="#4527a0" color="#000" overflow="visible"/><text style="line-height:125%;-inkscape-font-specification:'Open Sans, Normal';font-variant-ligatures:normal;font-variant-caps:normal;font-variant-numeric:normal;font-feature-settings:normal;text-align:center" x="51.824" y="330.077" font-weight="400" font-size="6.654" font-family="Open Sans" letter-spacing="0" word-spacing="0" text-anchor="middle" fill="#fff" stroke-width=".265" transform="translate(-5.162 -78.88)"><tspan x="51.824" y="330.077">#4527a0ff</tspan></text><g color="#000"><path style="isolation:auto;mix-blend-mode:normal;solid-color:#000;solid-opacity:1" d="M261.237 238.516h20.333v20.333h-20.333v-20.333" fill="#d8cff3" overflow="visible"/><path d="M78.356 238.516h20.333v20.333H78.356v-20.333" style="isolation:auto;mix-blend-mode:normal;solid-color:#000;solid-opacity:1" fill="#5034a6" overflow="visible"/><path d="M98.676 238.516h20.333v20.333H98.676v-20.333" style="isolation:auto;mix-blend-mode:normal;solid-color:#000;solid-opacity:1" fill="#5e43ae" overflow="visible"/><path d="M118.996 238.516h20.333v20.333h-20.333v-20.333" style="isolation:auto;mix-blend-mode:normal;solid-color:#000;solid-opacity:1" fill="#6c53b6" overflow="visible"/><path d="M139.316 238.516h20.333v20.333h-20.333v-20.333" style="isolation:auto;mix-blend-mode:normal;solid-color:#000;solid-opacity:1" fill="#7a64be" overflow="visible"/><path d="M159.636 238.516h20.333v20.333h-20.333v-20.333" style="isolation:auto;mix-blend-mode:normal;solid-color:#000;solid-opacity:1" fill="#8975c6" overflow="visible"/><path d="M179.956 238.516h20.333v20.333h-20.333v-20.333" style="isolation:auto;mix-blend-mode:normal;solid-color:#000;solid-opacity:1" fill="#9886cf" overflow="visible"/><path d="M200.277 238.516h20.333v20.333h-20.333v-20.333" style="isolation:auto;mix-blend-mode:normal;solid-color:#000;solid-opacity:1" fill="#a898d8" overflow="visible"/><path d="M220.597 238.516h20.333v20.333h-20.333v-20.333" style="isolation:auto;mix-blend-mode:normal;solid-color:#000;solid-opacity:1" fill="#b8aae0" overflow="visible"/><path d="M240.917 238.516h20.333v20.333h-20.333v-20.333" style="isolation:auto;mix-blend-mode:normal;solid-color:#000;solid-opacity:1" fill="#c7bce9" overflow="visible"/></g><g color="#000"><path style="isolation:auto;mix-blend-mode:normal;solid-color:#000;solid-opacity:1" d="M261.237 218.183h20.333v20.333h-20.333v-20.333" fill="#e7f0fc" overflow="visible"/><path d="M78.356 218.183h20.333v20.333H78.356v-20.333" style="isolation:auto;mix-blend-mode:normal;solid-color:#000;solid-opacity:1" fill="#296ac2" overflow="visible"/><path d="M98.676 218.183h20.333v20.333H98.676v-20.333" style="isolation:auto;mix-blend-mode:normal;solid-color:#000;solid-opacity:1" fill="#3c77c8" overflow="visible"/><path d="M118.996 218.183h20.333v20.333h-20.333v-20.333" style="isolation:auto;mix-blend-mode:normal;solid-color:#000;solid-opacity:1" fill="#4f85ce" overflow="visible"/><path d="M139.316 218.183h20.333v20.333h-20.333v-20.333" style="isolation:auto;mix-blend-mode:normal;solid-color:#000;solid-opacity:1" fill="#6493d4" overflow="visible"/><path d="M159.636 218.183h20.333v20.333h-20.333v-20.333" style="isolation:auto;mix-blend-mode:normal;solid-color:#000;solid-opacity:1" fill="#79a2da" overflow="visible"/><path d="M179.956 218.183h20.333v20.333h-20.333v-20.333" style="isolation:auto;mix-blend-mode:normal;solid-color:#000;solid-opacity:1" fill="#8eb1e1" overflow="visible"/><path d="M200.277 218.183h20.333v20.333h-20.333v-20.333" style="isolation:auto;mix-blend-mode:normal;solid-color:#000;solid-opacity:1" fill="#a4c0e7" overflow="visible"/><path d="M220.597 218.183h20.333v20.333h-20.333v-20.333" style="isolation:auto;mix-blend-mode:normal;solid-color:#000;solid-opacity:1" fill="#bad0ee" overflow="visible"/><path d="M240.917 218.183h20.333v20.333h-20.333v-20.333" style="isolation:auto;mix-blend-mode:normal;solid-color:#000;solid-opacity:1" fill="#d0e0f5" overflow="visible"/></g><g color="#000"><path style="isolation:auto;mix-blend-mode:normal;solid-color:#000;solid-opacity:1" d="M261.224 197.85h20.333v20.333h-20.333V197.85" fill="#dff5e4" overflow="visible"/><path d="M78.343 197.85h20.333v20.333H78.343V197.85" style="isolation:auto;mix-blend-mode:normal;solid-color:#000;solid-opacity:1" fill="#45b260" overflow="visible"/><path d="M98.663 197.85h20.333v20.333H98.663V197.85" style="isolation:auto;mix-blend-mode:normal;solid-color:#000;solid-opacity:1" fill="#54b96d" overflow="visible"/><path d="M118.983 197.85h20.333v20.333h-20.333V197.85" style="isolation:auto;mix-blend-mode:normal;solid-color:#000;solid-opacity:1" fill="#64c07b" overflow="visible"/><path d="M139.303 197.85h20.333v20.333h-20.333V197.85" style="isolation:auto;mix-blend-mode:normal;solid-color:#000;solid-opacity:1" fill="#74c789" overflow="visible"/><path d="M159.623 197.85h20.333v20.333h-20.333V197.85" style="isolation:auto;mix-blend-mode:normal;solid-color:#000;solid-opacity:1" fill="#85ce97" overflow="visible"/><path d="M179.944 197.85h20.333v20.333h-20.333V197.85" style="isolation:auto;mix-blend-mode:normal;solid-color:#000;solid-opacity:1" fill="#97d6a6" overflow="visible"/><path d="M200.264 197.85h20.333v20.333h-20.333V197.85" style="isolation:auto;mix-blend-mode:normal;solid-color:#000;solid-opacity:1" fill="#a8ddb5" overflow="visible"/><path d="M220.584 197.85h20.333v20.333h-20.333V197.85" style="isolation:auto;mix-blend-mode:normal;solid-color:#000;solid-opacity:1" fill="#bae5c4" overflow="visible"/><path d="M240.904 197.85h20.333v20.333h-20.333V197.85" style="isolation:auto;mix-blend-mode:normal;solid-color:#000;solid-opacity:1" fill="#ccedd4" overflow="visible"/></g><g color="#000"><path style="isolation:auto;mix-blend-mode:normal;solid-color:#000;solid-opacity:1" d="M261.224 177.517h20.333v20.333h-20.333v-20.333" fill="#ffe6d2" overflow="visible"/><path d="M78.343 177.517h20.333v20.333H78.343v-20.333" style="isolation:auto;mix-blend-mode:normal;solid-color:#000;solid-opacity:1" fill="#ff8e37" overflow="visible"/><path d="M98.663 177.517h20.333v20.333H98.663v-20.333" style="isolation:auto;mix-blend-mode:normal;solid-color:#000;solid-opacity:1" fill="#ff9746" overflow="visible"/><path d="M118.983 177.517h20.333v20.333h-20.333v-20.333" style="isolation:auto;mix-blend-mode:normal;solid-color:#000;solid-opacity:1" fill="#ffa056" overflow="visible"/><path d="M139.303 177.517h20.333v20.333h-20.333v-20.333" style="isolation:auto;mix-blend-mode:normal;solid-color:#000;solid-opacity:1" fill="#ffa967" overflow="visible"/><path d="M159.623 177.517h20.333v20.333h-20.333v-20.333" style="isolation:auto;mix-blend-mode:normal;solid-color:#000;solid-opacity:1" fill="#ffb378" overflow="visible"/><path d="M179.944 177.517h20.333v20.333h-20.333v-20.333" style="isolation:auto;mix-blend-mode:normal;solid-color:#000;solid-opacity:1" fill="#ffbd89" overflow="visible"/><path d="M200.264 177.517h20.333v20.333h-20.333v-20.333" style="isolation:auto;mix-blend-mode:normal;solid-color:#000;solid-opacity:1" fill="#ffc79b" overflow="visible"/><path d="M220.584 177.517h20.333v20.333h-20.333v-20.333" style="isolation:auto;mix-blend-mode:normal;solid-color:#000;solid-opacity:1" fill="#ffd1ad" overflow="visible"/><path d="M240.904 177.517h20.333v20.333h-20.333v-20.333" style="isolation:auto;mix-blend-mode:normal;solid-color:#000;solid-opacity:1" fill="#ffdbbf" overflow="visible"/></g><g color="#000"><path style="isolation:auto;mix-blend-mode:normal;solid-color:#000;solid-opacity:1" d="M261.224 157.184h20.333v20.333h-20.333v-20.333" fill="#f6e0e0" overflow="visible"/><path d="M78.343 157.184h20.333v20.333H78.343v-20.333" style="isolation:auto;mix-blend-mode:normal;solid-color:#000;solid-opacity:1" fill="#d15958" overflow="visible"/><path d="M98.663 157.184h20.333v20.333H98.663v-20.333" style="isolation:auto;mix-blend-mode:normal;solid-color:#000;solid-opacity:1" fill="#d46666" overflow="visible"/><path d="M118.983 157.184h20.333v20.333h-20.333v-20.333" style="isolation:auto;mix-blend-mode:normal;solid-color:#000;solid-opacity:1" fill="#d87474" overflow="visible"/><path d="M139.303 157.184h20.333v20.333h-20.333v-20.333" style="isolation:auto;mix-blend-mode:normal;solid-color:#000;solid-opacity:1" fill="#dc8382" overflow="visible"/><path d="M159.623 157.184h20.333v20.333h-20.333v-20.333" style="isolation:auto;mix-blend-mode:normal;solid-color:#000;solid-opacity:1" fill="#e09291" overflow="visible"/><path d="M179.944 157.184h20.333v20.333h-20.333v-20.333" style="isolation:auto;mix-blend-mode:normal;solid-color:#000;solid-opacity:1" fill="#e4a1a0" overflow="visible"/><path d="M200.264 157.184h20.333v20.333h-20.333v-20.333" style="isolation:auto;mix-blend-mode:normal;solid-color:#000;solid-opacity:1" fill="#e9b0b0" overflow="visible"/><path d="M220.584 157.184h20.333v20.333h-20.333v-20.333" style="isolation:auto;mix-blend-mode:normal;solid-color:#000;solid-opacity:1" fill="#edc0c0" overflow="visible"/><path d="M240.904 157.184h20.333v20.333h-20.333v-20.333" style="isolation:auto;mix-blend-mode:normal;solid-color:#000;solid-opacity:1" fill="#f1d0cf" overflow="visible"/></g></svg>