<?xml version="1.0" encoding="UTF-8" standalone="no"?>
<svg
   xmlns:dc="http://purl.org/dc/elements/1.1/"
   xmlns:cc="http://creativecommons.org/ns#"
   xmlns:rdf="http://www.w3.org/1999/02/22-rdf-syntax-ns#"
   xmlns:svg="http://www.w3.org/2000/svg"
   xmlns="http://www.w3.org/2000/svg"
   xmlns:sodipodi="http://sodipodi.sourceforge.net/DTD/sodipodi-0.dtd"
   xmlns:inkscape="http://www.inkscape.org/namespaces/inkscape"
   version="1.1"
   id="svg2"
   xml:space="preserve"
   width="1706.6667"
   height="960"
   viewBox="0 0 1706.6667 960"
   sodipodi:docname="RETAS BUDAYA - Key Visual.svg"
   inkscape:version="1.0.1 (3bc2e813f5, 2020-09-07)"><metadata
     id="metadata8"><rdf:RDF><cc:Work
         rdf:about=""><dc:format>image/svg+xml</dc:format><dc:type
           rdf:resource="http://purl.org/dc/dcmitype/StillImage" /><dc:title></dc:title></cc:Work></rdf:RDF></metadata><defs
     id="defs6"><clipPath
       clipPathUnits="userSpaceOnUse"
       id="clipPath18"><path
         d="M 0,0 H 1280 V 719.863 H 0 Z"
         id="path16" /></clipPath><clipPath
       clipPathUnits="userSpaceOnUse"
       id="clipPath26"><path
         d="M 0,719.863 H 1280 V 0 H 0 Z"
         id="path24" /></clipPath><clipPath
       clipPathUnits="userSpaceOnUse"
       id="clipPath46"><path
         d="M 0,0 H 1280 V 719.863 H 0 Z"
         id="path44" /></clipPath><clipPath
       clipPathUnits="userSpaceOnUse"
       id="clipPath54"><path
         d="M 816.623,212.991 H 1021.77 V -23.8899 H 816.623 Z"
         id="path52" /></clipPath><clipPath
       clipPathUnits="userSpaceOnUse"
       id="clipPath70"><path
         d="M 736.07,208.165 H 878.984 V 43.1419 H 736.07 Z"
         id="path68" /></clipPath><clipPath
       clipPathUnits="userSpaceOnUse"
       id="clipPath86"><path
         d="M 721.283,341.901 H 877.957 V 160.989 H 721.283 Z"
         id="path84" /></clipPath><clipPath
       clipPathUnits="userSpaceOnUse"
       id="clipPath106"><path
         d="M 0,0 H 1280 V 719.863 H 0 Z"
         id="path104" /></clipPath><clipPath
       clipPathUnits="userSpaceOnUse"
       id="clipPath114"><path
         d="M 930.103,286.027 H 1002.6 V 202.309 H 930.103 Z"
         id="path112" /></clipPath><clipPath
       clipPathUnits="userSpaceOnUse"
       id="clipPath130"><path
         d="m 997.275,341.468 h 53.285 v -61.529 h -53.285 z"
         id="path128" /></clipPath><clipPath
       clipPathUnits="userSpaceOnUse"
       id="clipPath146"><path
         d="M 669.699,138.953 H 829.504 V -45.5741 H 669.699 Z"
         id="path144" /></clipPath><linearGradient
       x1="0"
       y1="0"
       x2="1"
       y2="0"
       gradientUnits="userSpaceOnUse"
       gradientTransform="matrix(41.119419,0,0,-41.119419,856.34802,137.07381)"
       spreadMethod="pad"
       id="linearGradient172"><stop
         style="stop-opacity:1;stop-color:#6bb4d8"
         offset="0"
         id="stop168" /><stop
         style="stop-opacity:1;stop-color:#008ebc"
         offset="1"
         id="stop170" /></linearGradient><clipPath
       clipPathUnits="userSpaceOnUse"
       id="clipPath186"><path
         d="M 0,0 H 1280 V 719.863 H 0 Z"
         id="path184" /></clipPath><clipPath
       clipPathUnits="userSpaceOnUse"
       id="clipPath194"><path
         d="M 359.454,804.346 H 652.212 V 497.564 H 359.454 Z"
         id="path192" /></clipPath><clipPath
       clipPathUnits="userSpaceOnUse"
       id="clipPath214"><path
         d="m 925.66,798.044 h 404.29 V -10.5412 H 925.66 Z"
         id="path212" /></clipPath><clipPath
       clipPathUnits="userSpaceOnUse"
       id="clipPath230"><path
         d="m 1100.87,367.621 h 123.06 V 259.255 h -123.06 z"
         id="path228" /></clipPath><clipPath
       clipPathUnits="userSpaceOnUse"
       id="clipPath246"><path
         d="M 977.817,259.255 H 1100.87 V 68.1207 H 977.817 Z"
         id="path244" /></clipPath><clipPath
       clipPathUnits="userSpaceOnUse"
       id="clipPath262"><path
         d="m 1100.87,259.255 h 123.06 V 68.1207 h -123.06 z"
         id="path260" /></clipPath><clipPath
       clipPathUnits="userSpaceOnUse"
       id="clipPath278"><path
         d="M 977.817,104.233 H 1100.87 V -4.13304 H 977.817 Z"
         id="path276" /></clipPath><clipPath
       clipPathUnits="userSpaceOnUse"
       id="clipPath294"><path
         d="m 1100.87,104.233 h 123.06 V -4.13304 h -123.06 z"
         id="path292" /></clipPath><clipPath
       clipPathUnits="userSpaceOnUse"
       id="clipPath322"><path
         d="m 1100.87,558.765 h 123.06 V 367.621 h -123.06 z"
         id="path320" /></clipPath><clipPath
       clipPathUnits="userSpaceOnUse"
       id="clipPath338"><path
         d="M 1223.93,104.233 H 1330 V 0.85289 h -106.07 z"
         id="path336" /></clipPath><clipPath
       clipPathUnits="userSpaceOnUse"
       id="clipPath354"><path
         d="M 1223.93,362.635 H 1330 v -103.38 h -106.07 z"
         id="path352" /></clipPath><clipPath
       clipPathUnits="userSpaceOnUse"
       id="clipPath370"><path
         d="M 1223.93,558.765 H 1330 V 372.607 h -106.07 z"
         id="path368" /></clipPath><clipPath
       clipPathUnits="userSpaceOnUse"
       id="clipPath386"><path
         d="M 1223.93,259.255 H 1330 v -103.38 h -106.07 z"
         id="path384" /></clipPath><clipPath
       clipPathUnits="userSpaceOnUse"
       id="clipPath402"><path
         d="M 63.2085,611.994 H 169.28 V 508.614 H 63.2085 Z"
         id="path400" /></clipPath><clipPath
       clipPathUnits="userSpaceOnUse"
       id="clipPath418"><path
         d="M 638.947,676.274 H 946.803 V 368.419 H 638.947 Z"
         id="path416" /></clipPath><linearGradient
       x1="0"
       y1="0"
       x2="1"
       y2="0"
       gradientUnits="userSpaceOnUse"
       gradientTransform="matrix(213.42046,-271.2977,-271.2977,-213.42046,700.04468,640.35126)"
       spreadMethod="pad"
       id="linearGradient430"><stop
         style="stop-opacity:1;stop-color:#f705cf"
         offset="0"
         id="stop424" /><stop
         style="stop-opacity:1;stop-color:#f8af24"
         offset="1"
         id="stop426" /><stop
         style="stop-opacity:1;stop-color:#f8af24"
         offset="1"
         id="stop428" /></linearGradient><linearGradient
       x1="0"
       y1="0"
       x2="1"
       y2="0"
       gradientUnits="userSpaceOnUse"
       gradientTransform="matrix(0,153.92763,153.92763,0,1023.7662,368.41891)"
       spreadMethod="pad"
       id="linearGradient462"><stop
         style="stop-opacity:1;stop-color:#8cd3f6"
         offset="0"
         id="stop458" /><stop
         style="stop-opacity:1;stop-color:#bfe5fa"
         offset="1"
         id="stop460" /></linearGradient><clipPath
       clipPathUnits="userSpaceOnUse"
       id="clipPath472"><path
         d="M 0,0 H 1280 V 719.863 H 0 Z"
         id="path470" /></clipPath><clipPath
       clipPathUnits="userSpaceOnUse"
       id="clipPath480"><path
         d="M 792.875,676.274 H 1100.73 V 522.347 H 792.875 Z"
         id="path478" /></clipPath><linearGradient
       x1="0"
       y1="0"
       x2="1"
       y2="0"
       gradientUnits="userSpaceOnUse"
       gradientTransform="matrix(-225.47798,-179.65869,-179.65869,225.47798,1060.9546,690.26569)"
       spreadMethod="pad"
       id="linearGradient492"><stop
         style="stop-opacity:1;stop-color:#f705cf"
         offset="0"
         id="stop486" /><stop
         style="stop-opacity:1;stop-color:#f8af24"
         offset="1"
         id="stop488" /><stop
         style="stop-opacity:1;stop-color:#f8af24"
         offset="1"
         id="stop490" /></linearGradient><clipPath
       clipPathUnits="userSpaceOnUse"
       id="clipPath514"><path
         d="m 946.802,599.311 h 76.968 v -76.964 h -76.968 z"
         id="path512" /></clipPath><clipPath
       clipPathUnits="userSpaceOnUse"
       id="clipPath518"><path
         d="m 1023.767,599.311 v 0 c -42.506,0 -76.964,-34.458 -76.964,-76.964 h 76.964 z"
         id="path516" /></clipPath><linearGradient
       x1="0"
       y1="0"
       x2="1"
       y2="0"
       gradientUnits="userSpaceOnUse"
       gradientTransform="matrix(0,-75.972443,-75.972443,0,985.28424,594.46844)"
       spreadMethod="pad"
       id="linearGradient528"><stop
         style="stop-opacity:1;stop-color:#ffffff"
         offset="0"
         id="stop524" /><stop
         style="stop-opacity:0.09999237;stop-color:#ffffff"
         offset="1"
         id="stop526" /></linearGradient><mask
       maskUnits="userSpaceOnUse"
       x="0"
       y="0"
       width="1"
       height="1"
       id="mask530"><g
         id="g540"><g
           id="g538"><g
             id="g536"><g
               id="g534"><path
                 d="M -32768,32767 H 32767 V -32768 H -32768 Z"
                 style="fill:url(#linearGradient528);stroke:none"
                 id="path532" /></g></g></g></g></mask><linearGradient
       x1="0"
       y1="0"
       x2="1"
       y2="0"
       gradientUnits="userSpaceOnUse"
       gradientTransform="matrix(0,-75.972443,-75.972443,0,985.28424,594.46844)"
       spreadMethod="pad"
       id="linearGradient546"><stop
         style="stop-opacity:1;stop-color:#62e2e8"
         offset="0"
         id="stop542" /><stop
         style="stop-opacity:1;stop-color:#62e2e8"
         offset="1"
         id="stop544" /></linearGradient><clipPath
       clipPathUnits="userSpaceOnUse"
       id="clipPath572"><path
         d="M 946.834,522.219 H 1023.8 V 445.256 H 946.834 Z"
         id="path570" /></clipPath><clipPath
       clipPathUnits="userSpaceOnUse"
       id="clipPath576"><path
         d="m 1023.798,445.255 v 0 c 0,42.506 -34.458,76.964 -76.964,76.964 v -76.964 z"
         id="path574" /></clipPath><linearGradient
       x1="0"
       y1="0"
       x2="1"
       y2="0"
       gradientUnits="userSpaceOnUse"
       gradientTransform="matrix(0,-60.288017,-60.288017,0,985.31561,514.7608)"
       spreadMethod="pad"
       id="linearGradient586"><stop
         style="stop-opacity:1;stop-color:#ffffff"
         offset="0"
         id="stop582" /><stop
         style="stop-opacity:0.09999237;stop-color:#ffffff"
         offset="1"
         id="stop584" /></linearGradient><mask
       maskUnits="userSpaceOnUse"
       x="0"
       y="0"
       width="1"
       height="1"
       id="mask588"><g
         id="g598"><g
           id="g596"><g
             id="g594"><g
               id="g592"><path
                 d="M -32768,32767 H 32767 V -32768 H -32768 Z"
                 style="fill:url(#linearGradient586);stroke:none"
                 id="path590" /></g></g></g></g></mask><linearGradient
       x1="0"
       y1="0"
       x2="1"
       y2="0"
       gradientUnits="userSpaceOnUse"
       gradientTransform="matrix(0,-60.288017,-60.288017,0,985.31561,514.7608)"
       spreadMethod="pad"
       id="linearGradient604"><stop
         style="stop-opacity:1;stop-color:#62e2e8"
         offset="0"
         id="stop600" /><stop
         style="stop-opacity:1;stop-color:#62e2e8"
         offset="1"
         id="stop602" /></linearGradient><linearGradient
       x1="0"
       y1="0"
       x2="1"
       y2="0"
       gradientUnits="userSpaceOnUse"
       gradientTransform="matrix(-574.02069,0,0,-574.02069,977.89282,24.097544)"
       spreadMethod="pad"
       id="linearGradient640"><stop
         style="stop-opacity:1;stop-color:#0078ab"
         offset="0"
         id="stop636" /><stop
         style="stop-opacity:1;stop-color:#214b74"
         offset="1"
         id="stop638" /></linearGradient><clipPath
       clipPathUnits="userSpaceOnUse"
       id="clipPath650"><path
         d="M 0,0 H 1280 V 719.863 H 0 Z"
         id="path648" /></clipPath><clipPath
       clipPathUnits="userSpaceOnUse"
       id="clipPath662"><path
         d="M 461.725,226.299 H 766.441 V 47.2031 H 461.725 Z"
         id="path660" /></clipPath><linearGradient
       x1="0"
       y1="0"
       x2="1"
       y2="0"
       gradientUnits="userSpaceOnUse"
       gradientTransform="matrix(-194.19258,0,0,-194.19258,812.08984,91.524361)"
       spreadMethod="pad"
       id="linearGradient688"><stop
         style="stop-opacity:1;stop-color:#6b004d"
         offset="0"
         id="stop684" /><stop
         style="stop-opacity:1;stop-color:#810052"
         offset="1"
         id="stop686" /></linearGradient><clipPath
       clipPathUnits="userSpaceOnUse"
       id="clipPath698"><path
         d="M 0,0 H 1280 V 719.863 H 0 Z"
         id="path696" /></clipPath><clipPath
       clipPathUnits="userSpaceOnUse"
       id="clipPath710"><path
         d="m 306.307,514.693 h 194.192 v -61.45 H 306.307 Z"
         id="path708" /></clipPath><clipPath
       clipPathUnits="userSpaceOnUse"
       id="clipPath726"><path
         d="M 183.762,177.602 H 377.954 V 116.151 H 183.762 Z"
         id="path724" /></clipPath><clipPath
       clipPathUnits="userSpaceOnUse"
       id="clipPath742"><path
         d="M 555.011,771.513 H 888.714 V 345.172 H 555.011 Z"
         id="path740" /></clipPath><clipPath
       clipPathUnits="userSpaceOnUse"
       id="clipPath758"><path
         d="M 555.011,488.156 H 705.596 V 295.768 H 555.011 Z"
         id="path756" /></clipPath><linearGradient
       x1="0"
       y1="0"
       x2="1"
       y2="0"
       gradientUnits="userSpaceOnUse"
       gradientTransform="matrix(0,-120.24,-120.24,0,869.98602,516.53967)"
       spreadMethod="pad"
       id="linearGradient784"><stop
         style="stop-opacity:1;stop-color:#fda626"
         offset="0"
         id="stop780" /><stop
         style="stop-opacity:1;stop-color:#ffdb1d"
         offset="1"
         id="stop782" /></linearGradient><linearGradient
       x1="0"
       y1="0"
       x2="1"
       y2="0"
       gradientUnits="userSpaceOnUse"
       gradientTransform="matrix(0,-199.84843,-199.84843,0,744.71759,516.51819)"
       spreadMethod="pad"
       id="linearGradient804"><stop
         style="stop-opacity:1;stop-color:#e96db8"
         offset="0"
         id="stop800" /><stop
         style="stop-opacity:1;stop-color:#fc226b"
         offset="1"
         id="stop802" /></linearGradient><linearGradient
       x1="0"
       y1="0"
       x2="1"
       y2="0"
       gradientUnits="userSpaceOnUse"
       gradientTransform="matrix(0,-81.930695,81.930695,0,1114.8552,506.94183)"
       spreadMethod="pad"
       id="linearGradient824"><stop
         style="stop-opacity:1;stop-color:#005673"
         offset="0"
         id="stop820" /><stop
         style="stop-opacity:1;stop-color:#0188c3"
         offset="1"
         id="stop822" /></linearGradient><linearGradient
       x1="0"
       y1="0"
       x2="1"
       y2="0"
       gradientUnits="userSpaceOnUse"
       gradientTransform="matrix(0,-49.119801,49.119801,0,1037.8864,425.9129)"
       spreadMethod="pad"
       id="linearGradient844"><stop
         style="stop-opacity:1;stop-color:#fd2b93"
         offset="0"
         id="stop840" /><stop
         style="stop-opacity:1;stop-color:#fd226b"
         offset="1"
         id="stop842" /></linearGradient><clipPath
       clipPathUnits="userSpaceOnUse"
       id="clipPath854"><path
         d="M 0,0 H 1280 V 719.863 H 0 Z"
         id="path852" /></clipPath><clipPath
       clipPathUnits="userSpaceOnUse"
       id="clipPath862"><path
         d="m 860.488,391.725 h 58.908 v -75.261 h -58.908 z"
         id="path860" /></clipPath><clipPath
       clipPathUnits="userSpaceOnUse"
       id="clipPath878"><path
         d="m 789.419,628.171 h 141.17 V 447.812 h -141.17 z"
         id="path876" /></clipPath><clipPath
       clipPathUnits="userSpaceOnUse"
       id="clipPath894"><path
         d="m 1129.85,678.809 h 94.11 V 558.57 h -94.11 z"
         id="path892" /></clipPath><linearGradient
       x1="0"
       y1="0"
       x2="1"
       y2="0"
       gradientUnits="userSpaceOnUse"
       gradientTransform="matrix(0,-81.930557,81.930557,0,1097.7836,618.68945)"
       spreadMethod="pad"
       id="linearGradient920"><stop
         style="stop-opacity:1;stop-color:#fda626"
         offset="0"
         id="stop916" /><stop
         style="stop-opacity:1;stop-color:#ffdb1d"
         offset="1"
         id="stop918" /></linearGradient><linearGradient
       x1="0"
       y1="0"
       x2="1"
       y2="0"
       gradientUnits="userSpaceOnUse"
       gradientTransform="matrix(0,-81.930557,81.930557,0,343.98727,106.16351)"
       spreadMethod="pad"
       id="linearGradient940"><stop
         style="stop-opacity:1;stop-color:#fda626"
         offset="0"
         id="stop936" /><stop
         style="stop-opacity:1;stop-color:#ffdb1d"
         offset="1"
         id="stop938" /></linearGradient><linearGradient
       x1="0"
       y1="0"
       x2="1"
       y2="0"
       gradientUnits="userSpaceOnUse"
       gradientTransform="matrix(0,-81.930557,81.930557,0,847.86945,719.87146)"
       spreadMethod="pad"
       id="linearGradient960"><stop
         style="stop-opacity:1;stop-color:#fda626"
         offset="0"
         id="stop956" /><stop
         style="stop-opacity:1;stop-color:#ffdb1d"
         offset="1"
         id="stop958" /></linearGradient><clipPath
       clipPathUnits="userSpaceOnUse"
       id="clipPath970"><path
         d="M 0,0 H 1280 V 719.863 H 0 Z"
         id="path968" /></clipPath><clipPath
       clipPathUnits="userSpaceOnUse"
       id="clipPath978"><path
         d="m 1181.87,639.748 h 131.18 V 570.86 h -131.18 z"
         id="path976" /></clipPath><linearGradient
       x1="0"
       y1="0"
       x2="1"
       y2="0"
       gradientUnits="userSpaceOnUse"
       gradientTransform="matrix(-237.43253,-1.10177,1.10177,-237.43253,1300.7451,151.78018)"
       spreadMethod="pad"
       id="linearGradient1004"><stop
         style="stop-opacity:1;stop-color:#8cd3f6"
         offset="0"
         id="stop1000" /><stop
         style="stop-opacity:1;stop-color:#bfe5fa"
         offset="1"
         id="stop1002" /></linearGradient></defs><sodipodi:namedview
     pagecolor="#ffffff"
     bordercolor="#666666"
     borderopacity="1"
     objecttolerance="10"
     gridtolerance="10"
     guidetolerance="10"
     inkscape:pageopacity="0"
     inkscape:pageshadow="2"
     inkscape:window-width="1920"
     inkscape:window-height="1036"
     id="namedview4"
     showgrid="false"
     inkscape:window-x="0"
     inkscape:window-y="36"
     inkscape:window-maximized="1"
     inkscape:current-layer="g10" /><g
     id="g10"
     inkscape:groupmode="layer"
     inkscape:label="RETAS BUDAYA - Key Visual"
     transform="matrix(1.3333333,0,0,-1.3333333,0,960)"><g
       id="g12"><g
         id="g14"
         clip-path="url(#clipPath18)"><g
           id="g20"><g
             id="g22" /><g
             id="g32"><g
               clip-path="url(#clipPath26)"
               opacity="0.199997"
               id="g30"><path
                 d="M 1280,0 H 0 v 719.863 h 1280 z"
                 style="fill:#ffac1a;fill-opacity:1;fill-rule:nonzero;stroke:none"
                 id="path28" /></g></g></g></g></g><text
       transform="matrix(1,0,0,-1,93.8604,339.8301)"
       style="font-variant:normal;font-weight:bold;font-stretch:normal;font-size:100px;font-family:Verdana;-inkscape-font-specification:Verdana-Bold;writing-mode:lr-tb;fill:#a2c53e;fill-opacity:1;fill-rule:nonzero;stroke:none"
       id="text38"><tspan
         x="0 78.199997 146.5 214.7 292.29999"
         y="0"
         sodipodi:role="line"
         id="tspan34">RETAS</tspan><tspan
         x="0 76.199997 157.39999 240.39999 318 391.70001"
         y="90"
         sodipodi:role="line"
         id="tspan36">BUDAYA</tspan></text><g
       id="g40"><g
         id="g42"
         clip-path="url(#clipPath46)"><g
           id="g48"><g
             id="g50" /><g
             id="g62"><g
               clip-path="url(#clipPath54)"
               id="g60"><g
                 transform="translate(1021.7676,35.3306)"
                 id="g58"><path
                   d="M 0,0 V 118.44 L -102.572,177.661 -205.145,118.44 V 0 l 102.573,-59.221 z"
                   style="fill:#449a53;fill-opacity:1;fill-rule:nonzero;stroke:none"
                   id="path56" /></g></g></g></g><g
           id="g64"><g
             id="g66" /><g
             id="g78"><g
               clip-path="url(#clipPath70)"
               id="g76"><g
                 transform="translate(878.9844,84.3975)"
                 id="g74"><path
                   d="m 0,0 v 82.512 l -71.458,41.256 -71.457,-41.256 V 0 l 71.457,-41.255 z"
                   style="fill:#6dc3ef;fill-opacity:1;fill-rule:nonzero;stroke:none"
                   id="path72" /></g></g></g></g><g
           id="g80"><g
             id="g82" /><g
             id="g94"><g
               clip-path="url(#clipPath86)"
               id="g92"><g
                 transform="translate(877.957,206.2168)"
                 id="g90"><path
                   d="m 0,0 v 90.456 l -78.337,45.228 -78.337,-45.228 V 0 l 78.337,-45.228 z"
                   style="fill:#ffac1a;fill-opacity:1;fill-rule:nonzero;stroke:none"
                   id="path88" /></g></g></g></g></g></g><g
       id="g96"
       transform="translate(684.229,266.7461)"><path
         d="M 0,0 V 36.896 L -31.954,55.345 -63.907,36.896 V 0 l 31.953,-18.449 z"
         style="fill:#556fde;fill-opacity:1;fill-rule:nonzero;stroke:none"
         id="path98" /></g><g
       id="g100"><g
         id="g102"
         clip-path="url(#clipPath106)"><g
           id="g108"><g
             id="g110" /><g
             id="g122"><g
               clip-path="url(#clipPath114)"
               id="g120"><g
                 transform="translate(1002.6045,223.2388)"
                 id="g118"><path
                   d="M 0,0 V 41.859 L -36.25,62.788 -72.501,41.859 V 0 l 36.251,-20.93 z"
                   style="fill:#a2c53e;fill-opacity:1;fill-rule:nonzero;stroke:none"
                   id="path116" /></g></g></g></g><g
           id="g124"><g
             id="g126" /><g
             id="g138"><g
               clip-path="url(#clipPath130)"
               id="g136"><g
                 transform="translate(1050.5605,295.3208)"
                 id="g134"><path
                   d="M 0,0 V 30.765 L -26.643,46.147 -53.286,30.765 V 0 l 26.643,-15.382 z"
                   style="fill:#449a53;fill-opacity:1;fill-rule:nonzero;stroke:none"
                   id="path132" /></g></g></g></g><g
           id="g140"><g
             id="g142" /><g
             id="g154"><g
               clip-path="url(#clipPath146)"
               id="g152"><g
                 transform="translate(829.5044,0.5576)"
                 id="g150"><path
                   d="m 0,0 v 92.264 l -79.903,46.132 -79.903,-46.132 V 0 l 79.903,-46.132 z"
                   style="fill:#6dc3ef;fill-opacity:1;fill-rule:nonzero;stroke:none"
                   id="path148" /></g></g></g></g></g></g><g
       id="g156"><g
         id="g158"><g
           id="g164"><g
             id="g166"><path
               d="m 897.468,125.204 v 23.74 l -20.56,11.87 -20.56,-11.87 v -23.74 l 20.56,-11.871 z"
               style="fill:url(#linearGradient172);stroke:none"
               id="path174" /></g></g></g></g><g
       id="g176"
       transform="translate(1020.9941,686.9829)"><path
         d="M 0,0 V 21.035 L -18.218,31.553 -36.435,21.035 V 0 l 18.217,-10.518 z"
         style="fill:#7b1a60;fill-opacity:1;fill-rule:nonzero;stroke:none"
         id="path178" /></g><g
       id="g180"><g
         id="g182"
         clip-path="url(#clipPath186)"><g
           id="g188"><g
             id="g190" /><g
             id="g202"><g
               clip-path="url(#clipPath194)"
               id="g200"><g
                 transform="translate(407.3203,732.8931)"
                 id="g198"><path
                   d="M 0,0 C -59.549,-69.139 -70.166,-215.368 6.315,-232.766 109.241,-256.181 62.891,-112.75 199.972,-62.884 330.89,-15.259 148.488,172.4 0,0"
                   style="fill:#556fde;fill-opacity:1;fill-rule:nonzero;stroke:none"
                   id="path196" /></g></g></g></g><g
           id="g204"
           transform="translate(249.5996,-53.3462)"><path
             d="m 0,0 c 13.521,15.199 27.266,30.947 33.652,50.644 5.497,16.955 5.302,35.237 1.11,52.455 -8.996,36.956 -34.14,67.462 -64.145,89.756 -34.783,25.846 -74.974,42.885 -111.632,65.714 -32.909,20.495 -64.401,48.054 -79.961,84.405 -7.946,18.564 -10.858,39.057 -7.408,59.018 3.307,19.139 11.99,36.906 23.396,52.499 24.468,33.449 59.692,55.591 95.506,75.131 36.617,19.978 75.243,38.588 105.348,68.141 23.233,22.807 40.088,51.615 50.043,82.527 20.057,62.282 12.895,134.8 -25.079,188.963 -4.638,6.616 -9.722,12.896 -15.179,18.851 -0.935,1.021 -2.449,-0.5 -1.517,-1.516 C 50.217,836.293 64.079,762.932 48.501,697.535 40.755,665.017 25.669,634.08 3.502,608.939 c -27.184,-30.83 -64.037,-50.531 -99.748,-69.73 -35.146,-18.895 -70.414,-38.271 -97.724,-67.997 -24.29,-26.438 -41.444,-60.704 -37.416,-97.407 4.051,-36.907 27.534,-68.373 54.891,-92.027 30.718,-26.559 67.862,-43.728 102.989,-63.482 35.734,-20.095 70.293,-43.637 91.382,-79.773 C 27.683,121.72 34.537,102.78 35.592,83.238 36.697,62.757 30.719,43.55 19.119,26.721 12.947,17.769 5.698,9.628 -1.517,1.517 -2.432,0.489 -0.92,-1.034 0,0"
             style="fill:#ffac1a;fill-opacity:1;fill-rule:nonzero;stroke:none"
             id="path206" /></g><g
           id="g208"><g
             id="g210" /><g
             id="g222"><g
               clip-path="url(#clipPath214)"
               opacity="0.199997"
               id="g220"><g
                 transform="translate(925.6602,393.751)"
                 id="g218"><path
                   d="M 0,0 C 0,-223.284 181.008,-404.292 404.292,-404.292 V 404.292 C 181.008,404.292 0,223.285 0,0"
                   style="fill:#ffac1a;fill-opacity:1;fill-rule:nonzero;stroke:none"
                   id="path216" /></g></g></g></g><g
           id="g224"><g
             id="g226" /><g
             id="g238"><g
               clip-path="url(#clipPath230)"
               id="g236"><g
                 transform="translate(1100.873,295.377)"
                 id="g234"><path
                   d="M 0,0 123.057,-36.122 V 36.122 L 0,72.244 Z"
                   style="fill:#556fde;fill-opacity:1;fill-rule:nonzero;stroke:none"
                   id="path232" /></g></g></g></g><g
           id="g240"><g
             id="g242" /><g
             id="g254"><g
               clip-path="url(#clipPath246)"
               id="g252"><g
                 transform="translate(1100.873,223.1328)"
                 id="g250"><path
                   d="M 0,0 -123.056,36.123 V -118.89 L 0,-155.012 Z"
                   style="fill:#ff5a3a;fill-opacity:1;fill-rule:nonzero;stroke:none"
                   id="path248" /></g></g></g></g><g
           id="g256"><g
             id="g258" /><g
             id="g270"><g
               clip-path="url(#clipPath262)"
               id="g268"><g
                 transform="translate(1100.873,223.1328)"
                 id="g266"><path
                   d="M 0,0 123.057,36.123 V -118.89 L 0,-155.012 Z"
                   style="fill:#ffac1a;fill-opacity:1;fill-rule:nonzero;stroke:none"
                   id="path264" /></g></g></g></g><g
           id="g272"><g
             id="g274" /><g
             id="g286"><g
               clip-path="url(#clipPath278)"
               id="g284"><g
                 transform="translate(977.8174,31.9893)"
                 id="g282"><path
                   d="M 0,0 123.056,-36.122 V 36.122 L 0,72.244 Z"
                   style="fill:#7b1a60;fill-opacity:1;fill-rule:nonzero;stroke:none"
                   id="path280" /></g></g></g></g><g
           id="g288"><g
             id="g290" /><g
             id="g302"><g
               clip-path="url(#clipPath294)"
               id="g300"><g
                 transform="translate(1223.9297,31.9893)"
                 id="g298"><path
                   d="M 0,0 -123.057,-36.122 V 36.122 L 0,72.244 Z"
                   style="fill:#556fde;fill-opacity:1;fill-rule:nonzero;stroke:none"
                   id="path296" /></g></g></g></g><g
           id="g304"
           transform="translate(1100.873,-4.1328)"><path
             d="M 0,0 123.057,36.122 V 0 Z"
             style="fill:#ff5a3a;fill-opacity:1;fill-rule:nonzero;stroke:none"
             id="path306" /></g><g
           id="g308"
           transform="translate(1223.791,366.3462)"><path
             d="m 0,0 -59.456,-17.354 59.595,-17.493 59.317,17.47 z"
             style="fill:#ff5a3a;fill-opacity:1;fill-rule:nonzero;stroke:none"
             id="path310" /></g><g
           id="g312"
           transform="translate(1162.5,277.2871)"><path
             d="M 0,0 -57.792,-16.962 3.636,-34.995 61.43,-18.032 Z"
             style="fill:#ff5a3a;fill-opacity:1;fill-rule:nonzero;stroke:none"
             id="path314" /></g><g
           id="g316"><g
             id="g318" /><g
             id="g330"><g
               clip-path="url(#clipPath322)"
               id="g328"><g
                 transform="translate(1223.9297,403.7432)"
                 id="g326"><path
                   d="M 0,0 -123.057,-36.122 V 118.9 L 0,155.022 Z"
                   style="fill:#556fde;fill-opacity:1;fill-rule:nonzero;stroke:none"
                   id="path324" /></g></g></g></g><g
           id="g332"><g
             id="g334" /><g
             id="g346"><g
               clip-path="url(#clipPath338)"
               id="g344"><g
                 transform="translate(1330,73.0967)"
                 id="g342"><path
                   d="M 0,0 -106.071,31.136 V -41.107 L 0,-72.244 Z"
                   style="fill:#ffac1a;fill-opacity:1;fill-rule:nonzero;stroke:none"
                   id="path340" /></g></g></g></g><g
           id="g348"><g
             id="g350" /><g
             id="g362"><g
               clip-path="url(#clipPath354)"
               id="g360"><g
                 transform="translate(1330,362.6353)"
                 id="g358"><path
                   d="M 0,0 -106.071,-31.136 V -103.38 L 0,-72.244 Z"
                   style="fill:#7b1a60;fill-opacity:1;fill-rule:nonzero;stroke:none"
                   id="path356" /></g></g></g></g><g
           id="g364"><g
             id="g366" /><g
             id="g378"><g
               clip-path="url(#clipPath370)"
               id="g376"><g
                 transform="translate(1330,527.6289)"
                 id="g374"><path
                   d="M 0,0 -106.071,31.136 V -123.886 L 0,-155.022 Z"
                   style="fill:#ffac1a;fill-opacity:1;fill-rule:nonzero;stroke:none"
                   id="path372" /></g></g></g></g><g
           id="g380"><g
             id="g382" /><g
             id="g394"><g
               clip-path="url(#clipPath386)"
               id="g392"><g
                 transform="translate(1330,228.1191)"
                 id="g390"><path
                   d="M 0,0 -106.071,31.136 V -41.107 L 0,-72.244 Z"
                   style="fill:#556fde;fill-opacity:1;fill-rule:nonzero;stroke:none"
                   id="path388" /></g></g></g></g><g
           id="g396"><g
             id="g398" /><g
             id="g410"><g
               clip-path="url(#clipPath402)"
               id="g408"><g
                 transform="translate(169.2798,580.8579)"
                 id="g406"><path
                   d="M 0,0 -106.071,31.136 V -41.108 L 0,-72.244 Z"
                   style="fill:#556fde;fill-opacity:1;fill-rule:nonzero;stroke:none"
                   id="path404" /></g></g></g></g><g
           id="g412"><g
             id="g414" /><g
             id="g444"><g
               clip-path="url(#clipPath418)"
               id="g442"><g
                 id="g440"><g
                   id="g438"><g
                     id="g436"><g
                       id="g434"><path
                         d="m 638.947,522.347 c 0,-85.012 68.916,-153.928 153.928,-153.928 85.012,0 153.928,68.916 153.928,153.928 0,85.011 -68.916,153.927 -153.928,153.927 -85.012,0 -153.928,-68.916 -153.928,-153.927"
                         style="fill:url(#linearGradient430);stroke:none"
                         id="path432" /></g></g></g></g></g></g></g></g></g><g
       id="g446"><g
         id="g448"><g
           id="g454"><g
             id="g456"><path
               d="m 1100.73,522.346 c -85.013,0 -153.927,-68.915 -153.927,-153.927 v 0 0 h 153.928 v 153.927 z"
               style="fill:url(#linearGradient462);stroke:none"
               id="path464" /></g></g></g></g><g
       id="g466"><g
         id="g468"
         clip-path="url(#clipPath472)"><g
           id="g474"><g
             id="g476" /><g
             id="g506"><g
               clip-path="url(#clipPath480)"
               id="g504"><g
                 id="g502"><g
                   id="g500"><g
                     id="g498"><g
                       id="g496"><path
                         d="m 946.803,676.274 v 0 H 792.875 V 522.347 h 153.928 153.927 c 0,85.011 -68.916,153.927 -153.927,153.927"
                         style="fill:url(#linearGradient492);stroke:none"
                         id="path494" /></g></g></g></g></g></g></g><g
           id="g508"><g
             id="g510" /><g
             id="g564"><g
               clip-path="url(#clipPath514)"
               id="g562"><g
                 id="g560"><g
                   clip-path="url(#clipPath518)"
                   id="g558"><g
                     id="g556"><g
                       id="g548" /><g
                       mask="url(#mask530)"
                       id="g554"><g
                         id="g552"><path
                           d="m 1023.767,599.311 v 0 c -42.506,0 -76.964,-34.458 -76.964,-76.964 h 76.964 z"
                           style="fill:url(#linearGradient546);stroke:none"
                           id="path550" /></g></g></g></g></g></g></g></g><g
           id="g566"><g
             id="g568" /><g
             id="g622"><g
               clip-path="url(#clipPath572)"
               id="g620"><g
                 id="g618"><g
                   clip-path="url(#clipPath576)"
                   id="g616"><g
                     id="g614"><g
                       id="g606" /><g
                       mask="url(#mask588)"
                       id="g612"><g
                         id="g610"><path
                           d="m 1023.798,445.255 v 0 c 0,42.506 -34.458,76.964 -76.964,76.964 v -76.964 z"
                           style="fill:url(#linearGradient604);stroke:none"
                           id="path608" /></g></g></g></g></g></g></g></g></g></g><g
       id="g624"><g
         id="g626"><g
           id="g632"><g
             id="g634"><path
               d="m 403.872,69.307 v -0.001 c 0,-30.753 21.654,-57.253 51.791,-63.381 v 0 L 484.799,0 h 489.559 c -7.307,21.15 -25.326,37.607 -48.255,42.27 v 0 l -444.664,90.419 c -4.386,0.892 -8.747,1.319 -13.025,1.32 v 0 c -34.816,0.003 -64.542,-28.278 -64.542,-64.702"
               style="fill:url(#linearGradient640);stroke:none"
               id="path642" /></g></g></g></g><g
       id="g644"><g
         id="g646"
         clip-path="url(#clipPath650)"><g
           id="g652"
           transform="translate(268.1343,93.9819)"><path
             d="M 0,0 413.047,-84.263 V 52.468 L 0,136.731 Z"
             style="fill:#556fde;fill-opacity:1;fill-rule:nonzero;stroke:none"
             id="path654" /></g><g
           id="g656"><g
             id="g658" /><g
             id="g670"><g
               clip-path="url(#clipPath662)"
               id="g668"><g
                 transform="translate(461.7246,109.165)"
                 id="g666"><path
                   d="M 0,0 304.717,-61.962 V 55.171 L 0,117.134 Z"
                   style="fill:#ffac1a;fill-opacity:1;fill-rule:nonzero;stroke:none"
                   id="path664" /></g></g></g></g></g></g><g
       id="g672"><g
         id="g674"><g
           id="g680"><g
             id="g682"><path
               d="M 617.898,96.88 812.09,57.71 v 28.46 l -194.192,39.169 z"
               style="fill:url(#linearGradient688);stroke:none"
               id="path690" /></g></g></g></g><g
       id="g692"><g
         id="g694"
         clip-path="url(#clipPath698)"><g
           id="g700"
           transform="translate(511.877,235.0835)"><path
             d="M 0,0 140.421,-28.324 V -7.745 L 0,20.579 Z"
             style="fill:#556fde;fill-opacity:1;fill-rule:nonzero;stroke:none"
             id="path702" /></g><g
           id="g704"><g
             id="g706" /><g
             id="g718"><g
               clip-path="url(#clipPath710)"
               id="g716"><g
                 transform="translate(317.498,487.0659)"
                 id="g714"><path
                   d="m 0,0 166.294,-33.542 c 8.638,-1.743 16.707,4.861 16.707,13.673 v 0 c 0,6.64 -4.681,12.361 -11.191,13.674 L 5.516,27.347 C -3.122,29.089 -11.191,22.485 -11.191,13.673 -11.191,7.033 -6.51,1.313 0,0"
                   style="fill:#6dc3ef;fill-opacity:1;fill-rule:nonzero;stroke:none"
                   id="path712" /></g></g></g></g><g
           id="g720"><g
             id="g722" /><g
             id="g734"><g
               clip-path="url(#clipPath726)"
               id="g732"><g
                 transform="translate(194.9531,149.9746)"
                 id="g730"><path
                   d="m 0,0 166.294,-33.543 c 8.638,-1.742 16.707,4.862 16.707,13.673 v 0.001 c 0,6.64 -4.681,12.36 -11.19,13.673 L 5.516,27.347 C -3.122,29.089 -11.191,22.485 -11.191,13.673 -11.191,7.033 -6.509,1.313 0,0"
                   style="fill:#449a53;fill-opacity:1;fill-rule:nonzero;stroke:none"
                   id="path728" /></g></g></g></g><g
           id="g736"><g
             id="g738" /><g
             id="g750"><g
               clip-path="url(#clipPath742)"
               id="g748"><g
                 transform="translate(555.0107,771.5127)"
                 id="g746"><path
                   d="M 0,0 V -426.341 L 333.703,-213.17 Z"
                   style="fill:#ffac1a;fill-opacity:1;fill-rule:nonzero;stroke:none"
                   id="path744" /></g></g></g></g><g
           id="g752"><g
             id="g754" /><g
             id="g766"><g
               clip-path="url(#clipPath758)"
               id="g764"><g
                 transform="translate(555.0107,488.1562)"
                 id="g762"><path
                   d="m 0,0 v -192.388 l 150.585,96.194 z"
                   style="fill:#ffac1a;fill-opacity:1;fill-rule:nonzero;stroke:none"
                   id="path760" /></g></g></g></g></g></g><g
       id="g768"><g
         id="g770"><g
           id="g776"><g
             id="g778"><path
               d="m 822.929,396.3 94.113,60.12 -94.113,60.12 z"
               style="fill:url(#linearGradient784);stroke:none"
               id="path786" /></g></g></g></g><g
       id="g788"><g
         id="g790"><g
           id="g796"><g
             id="g798"><path
               d="M 666.506,416.594 822.929,316.669 V 516.518 Z"
               style="fill:url(#linearGradient804);stroke:none"
               id="path806" /></g></g></g></g><g
       id="g808"><g
         id="g810"><g
           id="g816"><g
             id="g818"><path
               d="m 1082.791,465.977 64.128,-40.965 v 81.93 z"
               style="fill:url(#linearGradient824);stroke:none"
               id="path826" /></g></g></g></g><g
       id="g828"><g
         id="g830"><g
           id="g836"><g
             id="g838"><path
               d="m 1018.663,401.353 38.446,-24.56 v 49.12 z"
               style="fill:url(#linearGradient844);stroke:none"
               id="path846" /></g></g></g></g><g
       id="g848"><g
         id="g850"
         clip-path="url(#clipPath854)"><g
           id="g856"><g
             id="g858" /><g
             id="g870"><g
               clip-path="url(#clipPath862)"
               opacity="0.199997"
               id="g868"><g
                 transform="translate(919.3955,316.4639)"
                 id="g866"><path
                   d="M 0,0 V 75.261 L -58.907,37.631 Z"
                   style="fill:#ffac1a;fill-opacity:1;fill-rule:nonzero;stroke:none"
                   id="path864" /></g></g></g></g><g
           id="g872"><g
             id="g874" /><g
             id="g886"><g
               clip-path="url(#clipPath878)"
               id="g884"><g
                 transform="translate(930.5889,447.8115)"
                 id="g882"><path
                   d="M 0,0 V 180.36 L -141.17,90.18 Z"
                   style="fill:#449a53;fill-opacity:1;fill-rule:nonzero;stroke:none"
                   id="path880" /></g></g></g></g><g
           id="g888"><g
             id="g890" /><g
             id="g902"><g
               clip-path="url(#clipPath894)"
               id="g900"><g
                 transform="translate(1223.9609,558.5698)"
                 id="g898"><path
                   d="M 0,0 V 120.24 L -94.113,60.12 Z"
                   style="fill:#6dc3ef;fill-opacity:1;fill-rule:nonzero;stroke:none"
                   id="path896" /></g></g></g></g></g></g><g
       id="g904"><g
         id="g906"><g
           id="g912"><g
             id="g914"><path
               d="m 1065.72,577.724 64.127,-40.965 v 81.931 z"
               style="fill:url(#linearGradient920);stroke:none"
               id="path922" /></g></g></g></g><g
       id="g924"><g
         id="g926"><g
           id="g932"><g
             id="g934"><path
               d="m 311.923,65.198 64.128,-40.966 v 81.932 z"
               style="fill:url(#linearGradient940);stroke:none"
               id="path942" /></g></g></g></g><g
       id="g944"><g
         id="g946"><g
           id="g952"><g
             id="g954"><path
               d="m 879.921,719.863 -64.116,-40.957 64.129,-40.965 v 81.922 z"
               style="fill:url(#linearGradient960);stroke:none"
               id="path962" /></g></g></g></g><g
       id="g964"><g
         id="g966"
         clip-path="url(#clipPath970)"><g
           id="g972"><g
             id="g974" /><g
             id="g986"><g
               clip-path="url(#clipPath978)"
               id="g984"><g
                 transform="translate(1312.916,604.9463)"
                 id="g982"><path
                   d="M 0,0 C 1.144,10.697 -4.939,26.995 -23.594,33.457 -42.248,39.92 -66.149,20.875 -82.496,23.003 -98.842,25.132 -111.479,37.598 -122.453,29.525 -139.48,17 -131.082,-5.396 -98.284,-21.179 -65.486,-36.961 -4.946,-46.296 0,0"
                   style="fill:#449a53;fill-opacity:1;fill-rule:nonzero;stroke:none"
                   id="path980" /></g></g></g></g></g></g><g
       id="g988"><g
         id="g990"><g
           id="g996"><g
             id="g998"><path
               d="m 1063.218,171.184 c 0.037,-8.119 5.794,-15.086 13.76,-16.655 v 0 L 1280,114.558 v 34.765 l -196.432,38.674 c -1.122,0.221 -2.237,0.327 -3.331,0.327 v 0 c -9.217,10e-4 -17.064,-7.509 -17.019,-17.14"
               style="fill:url(#linearGradient1004);stroke:none"
               id="path1006" /></g></g></g></g></g></svg>
